<?xml version="1.0" encoding="UTF-8" standalone="no"?>
<!-- Created with Inkscape (http://www.inkscape.org/) -->

<svg
   width="112.05829mm"
   height="226.07518mm"
   viewBox="0 0 112.05829 226.07518"
   version="1.1"
   id="svg1"
   xml:space="preserve"
   xmlns="http://www.w3.org/2000/svg"
   xmlns:svg="http://www.w3.org/2000/svg"><defs
     id="defs1" /><g
     id="layer1"
     transform="translate(-51.302808,-34.366716)"><path
       style="fill:#000000;stroke-width:1.49192"
       d="m 68.684489,260.42954 c -1.46654,-0.13994 -2.117418,-0.24363 -3.131573,-0.49894 -3.077499,-0.77472 -5.883157,-2.37358 -8.159336,-4.64976 -3.019916,-3.01991 -4.804746,-6.91266 -5.128629,-11.18564 -0.03627,-0.47844 -0.0539,-19.986 -0.05398,-59.72356 l -1.25e-4,-59.01303 h -0.388292 c -0.271001,0 -0.407005,-0.0225 -0.450244,-0.0746 -0.04695,-0.0565 -0.06186,-2.12244 -0.06153,-8.5326 4.87e-4,-9.69343 -0.06421,-8.65587 0.539799,-8.65587 h 0.360264 v -2.21052 -2.21052 h -0.382075 c -0.329894,0 -0.391407,-0.0149 -0.450399,-0.10936 -0.09466,-0.15158 -0.0999,-16.966002 -0.0054,-17.079955 0.04237,-0.05102 0.180713,-0.0737 0.449502,-0.0737 h 0.388292 v -3.736842 -3.736831 h -0.388292 c -0.275169,0 -0.406762,-0.02223 -0.451691,-0.07639 -0.09113,-0.109805 -0.09038,-8.580398 7.68e-4,-8.690233 0.04398,-0.05296 0.17772,-0.07549 0.449209,-0.07549 h 0.386576 l 0.01874,-9.776293 c 0.01373,-7.167766 0.0354,-9.895662 0.08122,-10.223663 0.338656,-2.424725 0.834758,-4.083397 1.795806,-6.004111 0.930895,-1.860455 2.303923,-3.68064 3.818184,-5.061661 2.998569,-2.734724 6.677412,-4.321521 10.710504,-4.61977 0.536172,-0.03966 12.198489,-0.05116 39.210443,-0.0387 36.23157,0.01671 38.48369,0.02302 39.07886,0.109507 2.92641,0.425203 5.2585,1.290331 7.56115,2.804924 2.83937,1.867624 5.0936,4.54191 6.46538,7.670163 0.77092,1.757982 1.24629,3.648754 1.41792,5.639647 0.0363,0.421297 0.0546,7.443782 0.0551,21.09206 l 5.4e-4,20.460488 h 0.32607 c 0.27996,0 0.34638,0.01954 0.4698,0.137703 l 0.14368,0.137704 -0.0285,3.349127 c -0.0257,3.013669 -0.0371,3.356422 -0.11458,3.421992 -0.0789,0.06684 -0.0785,0.07027 0.006,0.04118 0.10772,-0.03715 0.11995,0.0191 0.0263,0.1201 -0.0361,0.03894 -0.0421,0.05789 -0.0134,0.04192 0.0349,-0.01924 0.0527,2.035454 0.0527,6.117134 0,4.89531 -0.0134,6.14102 -0.0658,6.12091 -0.0362,-0.0134 -0.0658,9.7e-4 -0.0658,0.033 0,0.0321 0.0295,0.0524 0.0658,0.0451 0.0519,-0.0104 0.0734,0.76698 0.10175,3.67106 l 0.0359,3.68419 -0.13785,0.14472 c -0.12189,0.128 -0.17618,0.14471 -0.46985,0.14471 h -0.33199 l -0.0152,62.51302 c -0.0149,59.2084 -0.0201,62.54641 -0.10727,63.14461 -0.50122,3.43788 -1.71272,6.26912 -3.80609,8.89471 -0.59208,0.74263 -1.88191,2.03245 -2.62453,2.62455 -2.62564,2.09338 -5.45895,3.30573 -8.89472,3.80596 -0.59628,0.0868 -2.79711,0.0923 -39.36834,0.0988 -21.305226,0.004 -38.819659,-0.001 -38.920975,-0.0104 z m 77.894571,-0.55976 c 3.47591,-0.47261 6.30576,-1.66437 8.92103,-3.75699 0.74218,-0.59386 1.9764,-1.82806 2.57025,-2.57024 2.10129,-2.62612 3.33737,-5.57887 3.75656,-8.97366 0.0903,-0.73086 0.0943,-4.84033 0.0943,-97.07875 0,-79.567559 -0.0119,-96.429985 -0.0697,-96.97348 -0.43461,-4.102409 -2.14783,-7.7211 -5.00849,-10.579036 -2.74762,-2.745002 -6.20189,-4.434708 -10.1323,-4.956343 -0.43333,-0.05751 -7.40724,-0.06985 -39.47359,-0.06985 H 68.289753 l -0.711185,0.114086 c -0.391152,0.06275 -0.995099,0.177616 -1.342102,0.255259 -7.207107,1.612631 -12.648878,7.713615 -13.418702,15.044234 -0.07209,0.686406 -0.08061,10.957961 -0.08061,97.10542 0,65.40668 0.01732,96.51282 0.05395,96.88288 0.838332,8.46936 7.700916,15.10464 16.156541,15.62139 0.361842,0.0221 17.828909,0.0367 38.815695,0.0324 35.59047,-0.007 38.20209,-0.0134 38.81572,-0.0973 z m -77.15773,-0.49393 c -6.933136,-0.31353 -12.948981,-4.80968 -15.211574,-11.36892 -0.406146,-1.17741 -0.666217,-2.34927 -0.815559,-3.67489 -0.114116,-1.01287 -0.117145,-192.800828 -0.0031,-193.81538 0.09766,-0.8685 0.212613,-1.520399 0.40373,-2.289469 1.723866,-6.936952 7.700026,-12.074578 14.78437,-12.709928 0.480998,-0.04313 11.016821,-0.05399 39.184113,-0.04037 l 38.52624,0.01863 0.65789,0.111357 c 2.006,0.339542 3.80674,0.931698 5.40402,1.777061 4.41684,2.337621 7.59944,6.542567 8.61736,11.385477 0.2018,0.960097 0.28761,1.636448 0.34854,2.747242 0.0397,0.72381 0.0512,29.213522 0.0386,96.6577 -0.0163,88.00466 -0.0245,95.67964 -0.10324,96.23664 -0.25404,1.79462 -0.52849,2.88524 -1.07943,4.28946 -1.53424,3.91046 -4.47066,7.09478 -8.25226,8.94897 -1.77726,0.87143 -3.36874,1.34601 -5.49999,1.64008 -0.61758,0.0852 -2.98632,0.0912 -38.65781,0.0964 -20.899946,0.003 -38.153857,-0.001 -38.342015,-0.0104 z m 76.52772,-4.30928 c 5.17028,-0.63991 9.44869,-4.41118 10.73386,-9.46152 0.11189,-0.43962 0.24676,-1.11906 0.29977,-1.50985 0.0931,-0.68646 0.0964,-3.95965 0.0964,-96.6577 0,-79.529739 -0.0119,-96.041718 -0.07,-96.499788 -0.4146,-3.272735 -1.91299,-6.098933 -4.34305,-8.191672 -1.09917,-0.946595 -2.57353,-1.819876 -3.89517,-2.307171 -0.66548,-0.24537 -1.74086,-0.520661 -2.50942,-0.6424 -0.57895,-0.09171 -2.15522,-0.09557 -38.94541,-0.09557 -36.790165,0 -38.366429,0.0039 -38.945394,0.09557 -1.835905,0.290809 -3.610652,0.974245 -5.082701,1.957292 -0.817698,0.546065 -1.338685,0.970637 -2.000735,1.630474 -2.037334,2.030525 -3.346071,4.74105 -3.652436,7.56456 -0.07815,0.720179 -0.0781,192.205205 4.6e-5,192.924795 0.340929,3.13946 1.917283,6.1252 4.329924,8.2012 1.640021,1.41118 3.698502,2.42685 5.746132,2.83517 1.19444,0.23819 -0.762925,0.22668 39.527794,0.23243 34.00473,0.004 38.12396,-0.003 38.71045,-0.0758 z M 97.526494,50.143259 c -0.76166,-0.09862 -1.47631,-0.45806 -2.02627,-1.019154 -0.69003,-0.704001 -0.97662,-1.368309 -1.01502,-2.352773 -0.0446,-1.143721 0.255,-1.941308 1.01775,-2.709338 0.3548,-0.357253 0.50784,-0.467809 0.92188,-0.665977 0.27303,-0.130692 0.6267,-0.269501 0.78591,-0.308477 0.42889,-0.105001 18.834216,-0.105001 19.263116,0 0.1592,0.03898 0.51287,0.17779 0.78591,0.308477 0.92749,0.443918 1.63794,1.337024 1.87537,2.357496 0.12979,0.557749 0.0846,1.508095 -0.0959,2.017605 -0.19404,0.54759 -0.43106,0.921413 -0.85477,1.348166 -0.59317,0.597414 -1.25371,0.922362 -2.08747,1.026908 -0.53151,0.06664 -18.054366,0.06388 -18.570416,-0.003 z m 17.654146,-3.127313 c -0.006,-0.09238 -0.18047,-0.09168 -0.18047,7.21e-4 0,0.05422 0.0345,0.08003 0.0921,0.06893 0.0507,-0.0097 0.0904,-0.0411 0.0883,-0.06964 z M 51.460824,113.39811 c -0.0079,-1.16513 -0.01432,-0.21184 -0.01432,2.11841 0,2.33025 0.0064,3.28354 0.01432,2.11842 0.0079,-1.16513 0.0079,-3.07171 0,-4.23683 z M 163.2106,111.49332 c 0,-0.0134 -0.0237,-0.0379 -0.0527,-0.0558 -0.0289,-0.0179 -0.0527,-0.008 -0.0527,0.0233 0,0.0307 0.0237,0.0558 0.0527,0.0558 0.0289,0 0.0527,-0.0104 0.0527,-0.0233 z M 51.789788,108.43759 c 0,-0.0527 -0.05263,-0.0789 -0.157895,-0.0789 -0.10527,0 -0.157894,0.0263 -0.157894,0.0789 0,0.0527 0.05263,0.0789 0.157894,0.0789 0.105269,0 0.157895,-0.0263 0.157895,-0.0789 z M 163.17701,99.437612 c -0.0167,-0.04342 -0.0395,-0.07892 -0.051,-0.07892 -0.0119,0 -0.0207,0.03551 -0.0207,0.07892 0,0.04341 0.023,0.07892 0.051,0.07892 0.0281,0 0.0373,-0.03551 0.0207,-0.07892 z m -0.0564,-0.236916 c 0.0152,-0.05789 0.006,-0.09205 -0.0201,-0.07579 -0.0263,0.01626 -0.0477,0.0637 -0.0477,0.10533 0,0.108909 0.0358,0.09339 0.0679,-0.02954 z M 51.460824,91.582363 c -0.0079,-1.150654 -0.01432,-0.209211 -0.01432,2.092099 0,2.301309 0.0064,3.242767 0.01432,2.092113 0.0079,-1.150655 0.0079,-3.033557 0,-4.184212 z M 163.0527,92.621841 c 0,-0.09354 -0.0351,-0.10533 -0.31578,-0.10533 -0.2807,0 -0.31579,0.01194 -0.31579,0.10533 0,0.09354 0.0351,0.10518 0.31579,0.10518 0.28069,0 0.31578,-0.01194 0.31578,-0.10518 z M 51.789788,86.700801 c 0,-0.05267 -0.05263,-0.07892 -0.157895,-0.07892 -0.10527,0 -0.157894,0.02626 -0.157894,0.07892 0,0.05266 0.05263,0.07892 0.157894,0.07892 0.105269,0 0.157895,-0.02626 0.157895,-0.07892 z m -0.330826,-9.684188 c 0,-0.130244 -0.0156,-0.236842 -0.03469,-0.236842 -0.01907,0 -0.03372,0.106523 -0.03255,0.236842 0.0012,0.130244 0.01678,0.236842 0.03469,0.236842 0.0179,0 0.03255,-0.106523 0.03255,-0.236842 z m 0.0015,-2.355257 c -0.0097,-0.238826 -0.01772,-0.04342 -0.01772,0.434207 0,0.477622 0.0079,0.673018 0.01772,0.434207 0.0097,-0.238811 0.0097,-0.629603 0,-0.868414 z m 0.01268,-1.736844 c -4.76e-4,-0.691383 -0.01971,-1.141211 -0.04693,-1.098214 -0.02538,0.03998 -0.03867,0.111148 -0.02954,0.157905 0.0091,0.04685 0.01841,0.540968 0.02062,1.098199 0.0022,0.557245 0.01587,1.01316 0.03034,1.01316 0.01447,0 0.02596,-0.526975 0.02551,-1.17105 z m 0.316595,-2.671055 c 0,-0.02894 -0.07104,-0.05267 -0.157895,-0.05267 -0.08684,0 -0.157894,0.02372 -0.157894,0.05267 0,0.02894 0.07104,0.05266 0.157894,0.05266 0.08684,0 0.157895,-0.02372 0.157895,-0.05266 z"
       id="path1" /></g></svg>
